<svg xmlns="http://www.w3.org/2000/svg" viewBox="0 0 64 64"><rect width="64" height="64" rx="14" fill="#0a0a0b"/><svg x="7" y="7" width="50" height="50" viewBox="28.5 9 320 320">
  <defs>
    <linearGradient id="pm-band" x1="90" y1="28" x2="330" y2="250" gradientUnits="userSpaceOnUse">
      <stop offset="0" stop-color="#fde6da"/>
      <stop offset=".3" stop-color="#f0b9a6"/>
      <stop offset=".65" stop-color="#dc907e"/>
      <stop offset="1" stop-color="#f3c7b6"/>
    </linearGradient>
    <linearGradient id="pm-fold" x1="262" y1="95" x2="330" y2="210" gradientUnits="userSpaceOnUse">
      <stop offset="0" stop-color="#8f4a43" stop-opacity=".6"/>
      <stop offset=".6" stop-color="#8f4a43" stop-opacity=".15"/>
      <stop offset="1" stop-color="#8f4a43" stop-opacity="0"/>
    </linearGradient>
    <linearGradient id="pm-bar" x1="0" y1="130" x2="0" y2="310" gradientUnits="userSpaceOnUse">
      <stop offset="0" stop-color="#f6cbbb"/>
      <stop offset=".5" stop-color="#e5a08e"/>
      <stop offset="1" stop-color="#cf8576"/>
    </linearGradient>
  </defs>
  <path d="M35 242Q57 231 80 226V310H35Z" fill="url(#pm-bar)"/>
  <path d="M108 197Q134 184 160 179V310H108Z" fill="url(#pm-bar)"/>
  <path d="M180 151Q206 137 232 131V310H180Z" fill="url(#pm-bar)"/>
  <path d="M90 28H262C310 28 342 70 342 135C342 205 305 258 258 258V195C278 192 288 170 288 145C288 115 278 95 262 95H160Z" fill="url(#pm-band)"/>
  <path d="M262 95C278 95 288 115 288 145C288 170 278 192 258 195V258C287 250 316 220 322 170C300 185 300 120 262 95Z" fill="url(#pm-fold)"/>
</svg></svg>